<svg xmlns="http://www.w3.org/2000/svg" xmlns:xlink="http://www.w3.org/1999/xlink" width="94" height="68" viewBox="0 0 94 68">
  <defs>
    <filter id="Rectangle_54" x="16.5" y="8.5" width="61" height="54" filterUnits="userSpaceOnUse">
      <feOffset dy="1" input="SourceAlpha"/>
      <feGaussianBlur stdDeviation="0.5" result="blur"/>
      <feFlood flood-color="#060708" flood-opacity="0.161"/>
      <feComposite operator="in" in2="blur"/>
      <feComposite in="SourceGraphic"/>
    </filter>
  </defs>
  <g id="Group_3849" data-name="Group 3849" transform="translate(-4123 -6542)">
    <g id="Group_3847" data-name="Group 3847" transform="translate(0 107)">
      <g id="Group_3845" data-name="Group 3845" transform="translate(0 107)">
        <rect id="Rectangle_4003" data-name="Rectangle 4003" width="94" height="68" transform="translate(4123 6328)" fill="#9a2f2f" opacity="0"/>
      </g>
    </g>
    <g id="Group_3848" data-name="Group 3848" transform="translate(3717 215)">
      <g id="Group_3830" data-name="Group 3830" transform="translate(-433.837 0.77)">
        <g transform="matrix(1, 0, 0, 1, 839.84, 6326.23)" filter="url(#Rectangle_54)">
          <rect id="Rectangle_54-2" data-name="Rectangle 54" width="58" height="51" rx="2" transform="translate(18 9)" fill="#f1f6f7"/>
        </g>
      </g>
      <path id="Search_-_Zoho_WorkDrive-26" data-name="Search - Zoho WorkDrive-26" d="M15.754,8.5l.017-.053-.188-.1-.145-.063-.23.03-.092.022a.493.493,0,0,0-.238.145,1.489,1.489,0,0,0-.191.624,4.994,4.994,0,0,0-.027,1.315,8.746,8.746,0,0,0,.383,1.66,18.153,18.153,0,0,0,.591-2.745l.1-.719.022-.117Zm-1.6,6.04c.092-.21.18-.425.266-.641l-.156-.333a10.477,10.477,0,0,1-.4-1.05,10.155,10.155,0,0,1-.449-1.954,6.236,6.236,0,0,1,.033-1.643,2.5,2.5,0,0,1,.438-1.2,1.681,1.681,0,0,1,.834-.566,1.857,1.857,0,0,1,.428-.085l.21-.025a1.132,1.132,0,0,1,.4.038,2.47,2.47,0,0,1,.5.216l0-.008c.683.275.8.385.693,1.445l-.088.757a20.922,20.922,0,0,1-1.082,4.32l.133.226a17.684,17.684,0,0,0,1.938,2.524c.4.436.842.892,1.3,1.335a15.828,15.828,0,0,1,4.245.3,6.053,6.053,0,0,1,1.711.581,3.027,3.027,0,0,1,1.265,1.2,1.784,1.784,0,0,1,.027,1.64,1.85,1.85,0,0,1-1.215.876,2.942,2.942,0,0,1-1.585,0,6.939,6.939,0,0,1-1.818-.842,15.777,15.777,0,0,1-2.126-1.59q-.492-.427-.966-.874l-.323.033-.711.092-.829.123a31.167,31.167,0,0,0-3.115.633c-.579.148-1.165.313-1.73.488l-.583.744A15.829,15.829,0,0,1,8.7,24.017a4.3,4.3,0,0,1-1.928.887,1.1,1.1,0,0,1-1.224-.441,1.54,1.54,0,0,1-.118-1.194,2.8,2.8,0,0,1,1-1.428,11.071,11.071,0,0,1,2.805-1.631q.981-.407,1.994-.729a26.362,26.362,0,0,0,2.923-4.944Zm-6.2,8.478a12.31,12.31,0,0,0,1.748-1.648l-.39.171A9.124,9.124,0,0,0,7.244,22.79a1.627,1.627,0,0,0-.6.792l-.017.083a3.155,3.155,0,0,0,1.333-.651Zm13.278-3.87q-.378-.027-.757-.033l.363.308a13.671,13.671,0,0,0,1.6,1.162,5.784,5.784,0,0,0,1.482.7,1.694,1.694,0,0,0,.934,0,.7.7,0,0,0,.449-.261.551.551,0,0,0-.037-.478,1.835,1.835,0,0,0-.751-.674,4.923,4.923,0,0,0-1.375-.456,14.084,14.084,0,0,0-1.908-.266Zm-4.3-1.748a20.459,20.459,0,0,1-1.725-2.164l-.348.734a27.481,27.481,0,0,1-1.716,2.953l.922-.23c.857-.2,1.643-.35,2.572-.494l.919-.137c-.216-.223-.426-.446-.624-.663ZM3.913,1H28.052a2.914,2.914,0,0,1,2.913,2.913V28.052a2.913,2.913,0,0,1-2.913,2.913H3.913A2.913,2.913,0,0,1,1,28.052V3.913A2.914,2.914,0,0,1,3.913,1Zm0,1.665A1.249,1.249,0,0,0,2.665,3.913V28.052A1.249,1.249,0,0,0,3.913,29.3H28.052A1.249,1.249,0,0,0,29.3,28.052V3.913a1.249,1.249,0,0,0-1.249-1.249Z" transform="translate(437 6346)" fill="#fb3449"/>
    </g>
  </g>
</svg>
