<svg id="Layer_1" data-name="Layer 1" xmlns="http://www.w3.org/2000/svg" viewBox="0 0 56.37 63.07"><defs><style>.cls-1{fill:none;}.cls-2{fill-rule:evenodd;}</style></defs><title>lock</title><rect class="cls-1" x="-21.81" y="-18.69" width="100" height="100"/><path class="cls-2" d="M14.53,25.57V20a13.66,13.66,0,0,1,27.31,0v5.58h4.29a2.1,2.1,0,0,1,1.49.62,2.12,2.12,0,0,1,.62,1.49v26.5a2.14,2.14,0,0,1-.62,1.49,2.1,2.1,0,0,1-1.49.62H10.24a2.1,2.1,0,0,1-1.49-.62,2.14,2.14,0,0,1-.62-1.49V27.68a2.12,2.12,0,0,1,.62-1.49,2.1,2.1,0,0,1,1.49-.62ZM27.28,48.11a2.26,2.26,0,1,1,1.81,0v2a.9.9,0,0,1-.9.91h0a.91.91,0,0,1-.9-.91Zm7.9-22.54V20h0a7,7,0,0,0-14,0h0v5.58Z"/></svg>