<svg xmlns="http://www.w3.org/2000/svg" xmlns:xlink="http://www.w3.org/1999/xlink" width="94" height="68" viewBox="0 0 94 68">
  <defs>
    <filter id="Rectangle_54" x="16.5" y="8.5" width="61" height="54" filterUnits="userSpaceOnUse">
      <feOffset dy="1" input="SourceAlpha"/>
      <feGaussianBlur stdDeviation="0.5" result="blur"/>
      <feFlood flood-color="#060708" flood-opacity="0.161"/>
      <feComposite operator="in" in2="blur"/>
      <feComposite in="SourceGraphic"/>
    </filter>
  </defs>
  <g id="Group_3844" data-name="Group 3844" transform="translate(-4123 -6328)">
    <rect id="Rectangle_4003" data-name="Rectangle 4003" width="94" height="68" transform="translate(4123 6328)" fill="#9a2f2f" opacity="0"/>
    <g id="Group_3843" data-name="Group 3843" transform="translate(3601 91)">
      <g id="Group_3830" data-name="Group 3830" transform="translate(-317.837 -89.23)">
        <g transform="matrix(1, 0, 0, 1, 839.84, 6326.23)" filter="url(#Rectangle_54)">
          <rect id="Rectangle_54-2" data-name="Rectangle 54" width="58" height="51" rx="2" transform="translate(18 9)" fill="#f1f6f7"/>
        </g>
      </g>
      <g id="Sheet-white" transform="translate(553.695 6255.6)">
        <g id="Group_3347" data-name="Group 3347" transform="translate(1 1.4)" opacity="0.9">
          <path id="Path_68132" data-name="Path 68132" d="M19.237,28.552H3.806A2.81,2.81,0,0,1,1,25.746V4.206A2.81,2.81,0,0,1,3.806,1.4H25.38a2.81,2.81,0,0,1,2.806,2.806V19.6a.934.934,0,1,1-1.869,0V4.206a.935.935,0,0,0-.934-.934H3.806a.935.935,0,0,0-.934.934v21.54a.935.935,0,0,0,.934.934H19.24a.936.936,0,1,1,0,1.872Z" transform="translate(-1 -1.4)" fill="#089949"/>
        </g>
        <g id="Group_3348" data-name="Group 3348" transform="translate(10.347 5.137)" opacity="0.9">
          <path id="Path_68133" data-name="Path 68133" d="M301.034,144.415a.935.935,0,0,1-.934-.934V121.934a.934.934,0,0,1,1.869,0v21.546A.931.931,0,0,1,301.034,144.415Z" transform="translate(-300.1 -121)" fill="#089949"/>
        </g>
        <g id="Group_3349" data-name="Group 3349" transform="translate(4.772 10.743)" opacity="0.9">
          <path id="Path_68134" data-name="Path 68134" d="M144.181,302.269H122.634a.934.934,0,1,1,0-1.869h21.546a.934.934,0,0,1,0,1.869Z" transform="translate(-121.7 -300.4)" fill="#089949"/>
        </g>
        <g id="Group_3350" data-name="Group 3350" transform="translate(20.608 20.989)" opacity="0.9">
          <path id="Path_68135" data-name="Path 68135" d="M632.2,640.576a.9.9,0,0,1-.241-.031.94.94,0,0,1-.662-.662l-2.8-10.453a.932.932,0,0,1,1.144-1.144l10.456,2.8a.937.937,0,0,1,.422,1.565l-7.653,7.653A.963.963,0,0,1,632.2,640.576Zm-1.478-10.065,1.962,7.325,5.362-5.362Z" transform="translate(-628.467 -628.253)" fill="#089949"/>
        </g>
      </g>
    </g>
  </g>
</svg>
