<svg xmlns="http://www.w3.org/2000/svg" width="94" height="68" viewBox="0 0 94 68">
  <g id="Group_3846" data-name="Group 3846" transform="translate(-4123 -6435)">
    <g id="Group_3845" data-name="Group 3845" transform="translate(0 107)">
      <rect id="Rectangle_4003" data-name="Rectangle 4003" width="94" height="68" transform="translate(4123 6328)" fill="#9a2f2f" opacity="0"/>
    </g>
    <g id="My_Folders_-_Zoho_WorkDrive-48_1_" data-name="My Folders - Zoho WorkDrive-48 (1)" transform="translate(4148 6449)">
      <path id="Path_69902" data-name="Path 69902" d="M2.1,7A1.1,1.1,0,0,0,1,8.1V27.882a1.1,1.1,0,0,0,1.1,1.1H39.466a1.1,1.1,0,0,0,1.1-1.1V8.1a1.1,1.1,0,0,0-1.1-1.1Z" transform="translate(1.198 5.99)" fill="#1bb18e" opacity="0.12"/>
      <path id="Path_69903" data-name="Path 69903" d="M3.3,2H15.309a3.294,3.294,0,0,1,2.743,1.468l3.09,4.638a1.1,1.1,0,0,0,.914.488H40.664a3.3,3.3,0,0,1,3.3,3.3V33.872a3.3,3.3,0,0,1-3.3,3.3H3.3a3.3,3.3,0,0,1-3.3-3.3V5.3A3.3,3.3,0,0,1,3.3,2Zm0,10.99a1.1,1.1,0,0,0-1.1,1.1V33.872a1.1,1.1,0,0,0,1.1,1.1H40.664a1.1,1.1,0,0,0,1.1-1.1V14.089a1.1,1.1,0,0,0-1.1-1.1Z" fill="#1bb18e"/>
    </g>
  </g>
</svg>
